<svg fill="none" height="278" viewBox="0 0 216 278" width="216" xmlns="http://www.w3.org/2000/svg"><g fill="#798ce5"><path clip-rule="evenodd" d="m196.83 23.0095c.194.2285.311.513.334.8122.12 1.4674 10.766 147.0363-88.707 180.9393-.299.102-.623.102-.922 0-99.46969-33.903-88.8238-179.4719-88.7066-180.9393.0239-.2983.1409-.5816.3343-.8099s.4535-.3898.7436-.462l87.7527-21.39003c.222-.05222.452-.05222.674 0l87.749 21.39003c.292.0702.553.2312.748.4597zm-16.151 15.5427c.158.1851.255.4152.275.658h.01c.098 1.1969 8.806 120.0408-72.59 147.7148-.239.091-.503.091-.742 0-81.3994-27.674-72.688-146.5179-72.5903-147.7148.0189-.2428.1142-.4736.2722-.6587.158-.185.3706-.3153.6071-.3719l71.795-17.4733c.182-.0456.372-.0456.554 0l71.802 17.4733c.236.0573.448.1878.607.3726z" fill-rule="evenodd"/><path d="m106.979 46.7893-47.8726 11.6424c-.1578.0402-.299.1289-.4043.2533-.105.1245-.1687.2789-.1819.4413-.0618.7989-5.8683 80.0287 48.3898 98.4807.163.052.339.052.502 0 54.258-18.455 48.455-97.6818 48.39-98.4839-.013-.163-.076-.3179-.182-.4422-.106-.1242-.249-.2115-.408-.2492l-47.869-11.6456c-.119-.0319-.245-.0319-.364 0"/><path d="m19.1939 261.476v-7.185h11.6203v21.132c-5.5951.918-10.1335 1.378-13.6157 1.378-6.221 0-10.50527-1.697-12.85282-5.089-2.30841-3.392-3.462623-8.781-3.462623-16.164 0-7.382 1.212893-12.709 3.638693-15.984 2.4258-3.271 6.55355-4.908 12.38325-4.908 3.6387 0 7.5709.42 11.7965 1.257l2.1127.42-.2348 6.405c-4.695-.518-8.5489-.779-11.5616-.779-2.9735 0-5.0668.359-6.2797 1.077-1.2129.719-2.1128 2.056-2.6996 4.011-.54779 1.917-.82168 5.23-.82168 9.938 0 4.671.56733 7.942 1.70198 9.818 1.1346 1.876 3.4822 2.815 7.0426 2.815l4.8713-.241v-7.901z"/><path d="m46.2097 262.492c0 4.75 2.3671 7.126 7.1014 7.126s7.1014-2.376 7.1014-7.126v-27.118h8.0989v26.939c0 4.988-1.2715 8.66-3.8148 11.016-2.504 2.314-6.2993 3.472-11.3855 3.472-5.0865 0-8.901-1.158-11.4444-3.472-2.504-2.356-3.7559-6.028-3.7559-11.016v-26.939h8.0989z"/><path d="m73.231 276.082 8.9792-40.708h15.3765l8.9793 40.708h-8.099l-1.5845-7.362h-13.9679l-1.5846 7.362zm15.2589-33.882-4.0495 19.335h10.916l-4.0494-19.335z"/><path d="m119.98 262.433v13.649h-8.099v-40.708h15.494c9.39 0 14.085 4.47 14.085 13.41 0 5.309-1.956 9.22-5.869 11.735l5.693 15.563h-8.862l-4.636-13.649zm7.512-7.064c1.917 0 3.345-.598 4.285-1.796.939-1.196 1.408-2.774 1.408-4.73 0-1.955-.509-3.51-1.526-4.668-.978-1.157-2.406-1.737-4.284-1.737h-7.395v12.931z"/><path d="m161.714 276.082h-13.439v-40.708h13.439c3.444 0 6.28.38 8.51 1.139 2.231.716 3.952 1.935 5.165 3.652 1.252 1.675 2.113 3.669 2.582 5.986.47 2.274.704 5.248.704 8.92 0 3.67-.215 6.723-.645 9.158-.43 2.395-1.252 4.55-2.465 6.464-1.174 1.876-2.895 3.254-5.165 4.132-2.269.839-5.164 1.257-8.686 1.257zm8.51-16.164c.079-1.275.118-3.033.118-5.268 0-2.273-.079-4.09-.235-5.447-.157-1.356-.528-2.595-1.115-3.711-.587-1.119-1.467-1.876-2.641-2.276-1.135-.439-2.68-.657-4.637-.657h-5.34v26.341h5.34c2.935 0 5.067-.76 6.398-2.276 1.134-1.237 1.838-3.472 2.112-6.706z"/><path d="m181.782 276.082 8.979-40.708h15.376l8.98 40.708h-8.099l-1.585-7.362h-13.968l-1.584 7.362zm15.259-33.882-4.05 19.335h10.916l-4.049-19.335z"/></g></svg>